<?xml version="1.0" encoding="UTF-8"?>
<svg width="147px" height="32px" viewBox="0 0 147 32" version="1.1" xmlns="http://www.w3.org/2000/svg" xmlns:xlink="http://www.w3.org/1999/xlink">
    <!-- Generator: Sketch 46.1 (44463) - http://www.bohemiancoding.com/sketch -->
    <title>Group 3 Copy</title>
    <desc>Created with Sketch.</desc>
    <defs></defs>
    <g id="Page-1" stroke="none" stroke-width="1" fill="none" fill-rule="evenodd">
        <g id="Group-3-Copy">
            <rect id="brand-blue" fill="#009DDC" x="0" y="0" width="147" height="32" rx="4"></rect>
            <path d="M49.3373333,15.385 C49.3373333,16.8843408 48.9191708,18.0283294 48.0828333,18.817 C47.2464958,19.6056706 46.0830075,20 44.5923333,20 L41.6283333,20 L41.6283333,10.796 L44.5663333,10.796 C46.0916743,10.796 47.2681625,11.1751629 48.0958333,11.9335 C48.9235041,12.6918371 49.3373333,13.8423256 49.3373333,15.385 Z M42.7723333,11.745 L42.7723333,19.038 L44.4753333,19.038 C45.6713393,19.038 46.5834969,18.739003 47.2118333,18.141 C47.8401698,17.542997 48.1543333,16.6243395 48.1543333,15.385 C48.1543333,12.9583212 46.9323456,11.745 44.4883333,11.745 L42.7723333,11.745 Z M56.6563333,17.088 L51.7423333,17.088 C51.7856669,17.7640034 51.9893315,18.3013313 52.3533333,18.7 C52.7173352,19.0986687 53.23733,19.298 53.9133333,19.298 C54.312002,19.298 54.6694984,19.2438339 54.9858333,19.1355 C55.3021682,19.0271661 55.6206651,18.8646677 55.9413333,18.648 L56.4353333,19.363 C56.0626648,19.631668 55.6661688,19.8353326 55.2458333,19.974 C54.8254979,20.1126674 54.3596692,20.182 53.8483333,20.182 C52.8343283,20.182 52.0435028,19.8613365 51.4758333,19.22 C50.9081638,18.5786635 50.6243333,17.7250053 50.6243333,16.659 C50.6243333,15.9743299 50.7456655,15.3720026 50.9883333,14.852 C51.2310012,14.3319974 51.5841643,13.9268348 52.0478333,13.6365 C52.5115023,13.3461652 53.0683301,13.201 53.7183333,13.201 C54.6803381,13.201 55.4148308,13.5129969 55.9218333,14.137 C56.4288359,14.7610031 56.6823333,15.5886615 56.6823333,16.62 C56.6823333,16.828001 56.6736668,16.9839995 56.6563333,17.088 Z M55.6033333,16.23 C55.5859999,15.57133 55.4170016,15.0426687 55.0963333,14.644 C54.7756651,14.2453313 54.312003,14.046 53.7053333,14.046 C53.0899969,14.046 52.613335,14.2518313 52.2753333,14.6635 C51.9373316,15.0751687 51.7553335,15.5973302 51.7293333,16.23 L55.6033333,16.23 Z M64.7683333,16.685 C64.7683333,17.34367 64.6470012,17.9373307 64.4043333,18.466 C64.1616655,18.9946693 63.8085023,19.4128318 63.3448333,19.7205 C62.8811643,20.0281682 62.3373365,20.182 61.7133333,20.182 C60.8726625,20.182 60.149003,19.9090027 59.5423333,19.363 L59.5423333,23.172 L58.4373333,23.172 L58.4373333,14.865 C58.4373333,14.3796642 58.4070003,13.8856692 58.3463333,13.383 L59.3993333,13.383 C59.4426669,13.6690014 59.4729999,14.006998 59.4903333,14.397 L59.5163333,14.397 C59.7330011,14.0329982 60.0363314,13.7426677 60.4263333,13.526 C60.8163353,13.3093323 61.2929972,13.201 61.8563333,13.201 C62.4890032,13.201 63.0219978,13.3548318 63.4553333,13.6625 C63.8886688,13.9701682 64.2158322,14.386164 64.4368333,14.9105 C64.6578344,15.434836 64.7683333,16.02633 64.7683333,16.685 Z M63.6243333,16.685 C63.6243333,15.8876627 63.4488351,15.2550023 63.0978333,14.787 C62.7468316,14.3189977 62.2593365,14.085 61.6353333,14.085 C61.227998,14.085 60.8640016,14.1803324 60.5433333,14.371 C60.2226651,14.5616676 59.9756675,14.821665 59.8023333,15.151 C59.6289991,15.480335 59.5423333,15.8399981 59.5423333,16.23 L59.5423333,18.427 C59.8456682,18.7303348 60.1468318,18.9513326 60.4458333,19.09 C60.7448348,19.2286674 61.0893314,19.298 61.4793333,19.298 C62.1726701,19.298 62.7034982,19.0575024 63.0718333,18.5765 C63.4401685,18.0954976 63.6243333,17.4650039 63.6243333,16.685 Z M67.6413333,10.796 L67.6413333,20 L66.5363333,20 L66.5363333,10.796 L67.6413333,10.796 Z M76.0523333,16.672 C76.0523333,17.3566701 75.920168,17.9654973 75.6558333,18.4985 C75.3914987,19.0315027 75.0101692,19.4453319 74.5118333,19.74 C74.0134975,20.0346681 73.4176701,20.182 72.7243333,20.182 C72.0396632,20.182 71.4460025,20.0325015 70.9433333,19.7335 C70.4406642,19.4344985 70.0593346,19.0206693 69.7993333,18.492 C69.539332,17.9633307 69.4093333,17.3566701 69.4093333,16.672 C69.4093333,15.6146614 69.6996638,14.7718365 70.2803333,14.1435 C70.8610029,13.5151635 71.6756614,13.201 72.7243333,13.201 C73.4263368,13.201 74.0264975,13.3461652 74.5248333,13.6365 C75.0231692,13.9268348 75.402332,14.3319974 75.6623333,14.852 C75.9223346,15.3720026 76.0523333,15.9786632 76.0523333,16.672 Z M70.5533333,16.672 C70.5533333,17.4606706 70.7331649,18.0954976 71.0928333,18.5765 C71.4525018,19.0575024 71.9963297,19.298 72.7243333,19.298 C73.4610037,19.298 74.0113315,19.0575024 74.3753333,18.5765 C74.7393352,18.0954976 74.9213333,17.4606706 74.9213333,16.672 C74.9213333,15.8833294 74.7393352,15.2550023 74.3753333,14.787 C74.0113315,14.3189977 73.4610037,14.085 72.7243333,14.085 C71.987663,14.085 71.4416684,14.3189977 71.0863333,14.787 C70.7309982,15.2550023 70.5533333,15.8833294 70.5533333,16.672 Z M79.8873333,21.612 C79.6706656,22.210003 79.4020016,22.6476653 79.0813333,22.925 C78.7606651,23.2023347 78.3360026,23.341 77.8073333,23.341 C77.4693316,23.341 77.1616681,23.2890005 76.8843333,23.185 L77.1053333,22.366 C77.296001,22.4180003 77.4823324,22.444 77.6643333,22.444 C77.9850016,22.444 78.2341658,22.3530009 78.4118333,22.171 C78.5895009,21.9889991 78.7433327,21.7160018 78.8733333,21.352 L79.3283333,20.039 L76.7543333,13.383 L77.9503333,13.383 L79.8743333,18.83 L79.9003333,18.83 L81.6683333,13.383 L82.7993333,13.383 L79.8873333,21.612 Z M88.6883333,13.383 L90.4433333,13.383 L90.4433333,14.228 L88.6883333,14.228 L88.6883333,18.219 C88.6883333,18.9296702 89.0133301,19.285 89.6633333,19.285 C89.8973345,19.285 90.113999,19.254667 90.3133333,19.194 L90.4823333,20.013 C90.1876652,20.1256672 89.8453353,20.182 89.4553333,20.182 C88.8746638,20.182 88.4175017,20.0195016 88.0838333,19.6945 C87.750165,19.3694984 87.5833333,18.908003 87.5833333,18.31 L87.5833333,14.228 L86.4133333,14.228 L86.4133333,13.513 L87.5703333,13.383 L87.5703333,11.758 L88.6883333,11.368 L88.6883333,13.383 Z M98.1523333,16.672 C98.1523333,17.3566701 98.020168,17.9654973 97.7558333,18.4985 C97.4914987,19.0315027 97.1101692,19.4453319 96.6118333,19.74 C96.1134975,20.0346681 95.5176701,20.182 94.8243333,20.182 C94.1396632,20.182 93.5460025,20.0325015 93.0433333,19.7335 C92.5406642,19.4344985 92.1593346,19.0206693 91.8993333,18.492 C91.639332,17.9633307 91.5093333,17.3566701 91.5093333,16.672 C91.5093333,15.6146614 91.7996638,14.7718365 92.3803333,14.1435 C92.9610029,13.5151635 93.7756614,13.201 94.8243333,13.201 C95.5263368,13.201 96.1264975,13.3461652 96.6248333,13.6365 C97.1231692,13.9268348 97.502332,14.3319974 97.7623333,14.852 C98.0223346,15.3720026 98.1523333,15.9786632 98.1523333,16.672 Z M92.6533333,16.672 C92.6533333,17.4606706 92.8331649,18.0954976 93.1928333,18.5765 C93.5525018,19.0575024 94.0963297,19.298 94.8243333,19.298 C95.5610037,19.298 96.1113315,19.0575024 96.4753333,18.5765 C96.8393352,18.0954976 97.0213333,17.4606706 97.0213333,16.672 C97.0213333,15.8833294 96.8393352,15.2550023 96.4753333,14.787 C96.1113315,14.3189977 95.5610037,14.085 94.8243333,14.085 C94.087663,14.085 93.5416684,14.3189977 93.1863333,14.787 C92.8309982,15.2550023 92.6533333,15.8833294 92.6533333,16.672 Z M102.546333,19.142 L103.131333,18.414 C103.504002,18.7086681 103.889665,18.9209993 104.288333,19.051 C104.687002,19.1810007 105.137664,19.246 105.640333,19.246 C106.264336,19.246 106.769165,19.1008348 107.154833,18.8105 C107.540502,18.5201652 107.733333,18.0976694 107.733333,17.543 C107.733333,17.1529981 107.642334,16.8366679 107.460333,16.594 C107.278332,16.3513321 107.027002,16.1563341 106.706333,16.009 C106.385665,15.8616659 105.961003,15.7186674 105.432333,15.58 C104.574329,15.3546655 103.933002,15.0491686 103.508333,14.6635 C103.083665,14.2778314 102.871333,13.7383368 102.871333,13.045 C102.871333,12.2736628 103.159497,11.6713355 103.735833,11.238 C104.31217,10.8046645 105.046662,10.588 105.939333,10.588 C106.502669,10.588 107.011831,10.6616659 107.466833,10.809 C107.921836,10.9563341 108.344331,11.1729986 108.734333,11.459 L108.214333,12.213 C107.850332,11.9789988 107.488502,11.8056672 107.128833,11.693 C106.769165,11.5803328 106.372669,11.524 105.939333,11.524 C105.358664,11.524 104.890668,11.6474988 104.535333,11.8945 C104.179998,12.1415012 104.002333,12.4989977 104.002333,12.967 C104.002333,13.4350023 104.164832,13.7881655 104.489833,14.0265 C104.814835,14.2648345 105.345663,14.4793324 106.082333,14.67 C107.009671,14.9126679 107.711664,15.2419979 108.188333,15.658 C108.665002,16.0740021 108.903333,16.6893293 108.903333,17.504 C108.903333,18.0933363 108.758168,18.5916646 108.467833,18.999 C108.177499,19.4063354 107.785336,19.7118323 107.291333,19.9155 C106.797331,20.1191677 106.24267,20.221 105.627333,20.221 C104.431327,20.221 103.404338,19.8613369 102.546333,19.142 Z M116.183333,11.745 L111.750333,11.745 L111.750333,14.891 L115.676333,14.891 L115.676333,15.827 L111.750333,15.827 L111.750333,20 L110.593333,20 L110.593333,10.796 L116.183333,10.796 L116.183333,11.745 Z M125.296333,15.385 C125.296333,16.8843408 124.878171,18.0283294 124.041833,18.817 C123.205496,19.6056706 122.042007,20 120.551333,20 L117.587333,20 L117.587333,10.796 L120.525333,10.796 C122.050674,10.796 123.227163,11.1751629 124.054833,11.9335 C124.882504,12.6918371 125.296333,13.8423256 125.296333,15.385 Z M118.731333,11.745 L118.731333,19.038 L120.434333,19.038 C121.630339,19.038 122.542497,18.739003 123.170833,18.141 C123.79917,17.542997 124.113333,16.6243395 124.113333,15.385 C124.113333,12.9583212 122.891346,11.745 120.447333,11.745 L118.731333,11.745 Z M133.863333,20 L132.524333,20 L129.937333,15.97 L129.937333,15.957 L129.924333,15.97 L127.376333,20 L126.024333,20 L129.248333,15.151 L129.261333,15.138 L126.375333,10.796 L127.701333,10.796 L129.963333,14.397 L132.212333,10.796 L133.512333,10.796 L130.626333,15.151 L130.639333,15.164 L133.863333,20 Z" id="Deploy-to-SFDX" fill="#FFFFFF"></path>
            <path d="M23.2569672,8.55210992 C24.8440689,8.55210992 26.2444528,9.42628397 26.9913242,10.7145405 C27.6448366,10.4384855 28.3450286,10.2544488 29.0919,10.2544488 C31.9860266,10.2544488 34.3199997,12.5549069 34.3199997,15.4074748 C34.3199997,18.2600427 31.9860266,20.5605007 29.0919,20.5605007 C28.7184643,20.5605007 28.391708,20.5144916 28.0649518,20.4684824 C27.4114393,21.6187114 26.1510938,22.4008671 24.7040305,22.4008671 C24.0971975,22.4008671 23.537044,22.2628397 23.0235699,22.0327939 C22.3700574,23.5510961 20.8296352,24.6093068 19.0091362,24.6093068 C17.1419577,24.6093068 15.5081765,23.4590778 14.9013435,21.8027481 C14.6212667,21.8487572 14.34119,21.8947664 14.0611132,21.8947664 C11.820499,21.8947664 10,20.1004091 10,17.8919694 C10,16.4196763 10.7935509,15.1314198 12.0072169,14.4412824 C11.7738196,13.8891725 11.6337812,13.2450443 11.6337812,12.600916 C11.6337812,10.0704122 13.734357,8 16.3484068,8 C17.982188,8.04600916 19.3358924,8.73614656 20.1761227,9.84036641 C20.9696736,9.05821068 22.0433012,8.55210992 23.2569672,8.55210992 Z" id="Shape-Copy-7" fill="#FFFFFF" fill-rule="nonzero"></path>
        </g>
    </g>
</svg>